<?xml version="1.0" encoding="UTF-8"?><svg id="Layer_1" xmlns="http://www.w3.org/2000/svg" viewBox="0 0 512 512"><path d="M125.9028,52.7898l11.1496-4.0958c7.433-2.7305,17.5207-5.9161,30.2631-9.5568,12.7424-3.6407,27.3809-6.8263,43.9156-9.5568s33.8279-4.2475,51.8796-4.5508,36.0275,1.5169,53.9275,5.461c6.0678,1.2136,14.4868,3.8682,25.2572,7.964,10.7703,4.0958,22.4508,8.7224,35.0415,13.8801,12.5907,5.1576,24.6504,10.3911,36.1792,15.7004,11.5288,5.3093,21.3131,9.936,29.3529,13.8801,8.0398,3.9441,12.9699,6.5229,14.7902,7.7364,3.9441,3.6407,8.7983,8.8741,14.5627,15.7004,5.7644,6.8263,10.7703,14.1835,15.0178,22.0716,3.9441,7.8881,6.8263,15.1695,8.6466,21.844,1.8203,6.6746,2.8822,13.8042,3.1856,21.389.3034,5.1576.3792,11.9839.2275,20.4788-.1517,8.4949-.3792,17.2174-.6826,26.1673-.3034,8.95-.7585,16.6106-1.3653,22.9817,0,2.7305-2.8822,9.1775-8.6466,19.3411-5.7644,10.1635-13.425,22.7542-22.9817,37.772-9.5568,15.0178-20.0237,31.2491-31.4008,48.694-11.3771,17.4449-22.9059,34.6622-34.5864,51.6521-11.6805,16.9898-22.6025,32.6902-32.7661,47.1012s-18.7343,26.0915-25.7123,35.0415c-6.978,8.95-11.3771,13.8801-13.1974,14.7902-6.6746,3.0339-15.7004,6.5987-27.0775,10.6945-11.3771,4.0958-25.5606,6.2953-42.5504,6.5987-17.2932.3034-32.9178-1.6686-46.8737-5.9161-13.9559-4.2475-25.7881-8.4949-35.4966-12.7424-3.0339-1.5169-8.6466-5.5369-16.8381-12.0597-8.1915-6.5229-17.5966-14.4868-28.2152-23.8919-10.6186-9.4051-21.5406-19.2652-32.7661-29.5805-11.2254-10.3152-21.6923-19.872-31.4008-28.6703-9.7085-8.7983-17.5207-16.0038-23.4368-21.6165-5.9161-5.6127-8.8741-8.4191-8.8741-8.4191,0,0-.6068-4.2475-1.8203-12.7424-1.2136-8.4949-2.6547-19.6445-4.3233-33.4487s-3.4131-28.5945-5.2335-44.3707-3.5648-31.0974-5.2335-45.9635-3.0339-27.7601-4.0958-38.6822c-1.0619-10.922-1.5928-18.2034-1.5928-21.844.3034-10.6186,1.4411-19.5686,3.4131-26.85,1.972-7.2813,5.0818-15.0178,9.3292-23.2093,4.5508-8.7983,10.6186-16.4589,18.2034-22.9817s15.0178-12.3631,22.2991-17.5207c2.7305-2.1237,7.3572-4.7784,13.8801-7.964s13.3491-6.3712,20.4788-9.5568,13.2733-5.8402,18.4309-7.964l7.7364-3.1856Z" fill="#cecece"/><path d="M50.3589,106.4897c0-5.7644,2.1996-11.3013,6.5987-16.6106s9.6326-9.7843,15.7004-13.425c1.8203-1.2136,6.447-3.6407,13.8801-7.2813,7.433-3.6407,16.383-7.964,26.85-12.9699s21.5406-10.1635,33.2211-15.4729c11.6805-5.3093,22.9817-10.4669,33.9038-15.4729,10.922-5.0059,20.4029-9.3292,28.4428-12.9699s13.7284-6.0678,17.0657-7.2813C234.2128,1.6686,242.7078,0,251.506,0s16.914.7585,24.347,2.2754,13.2733,3.0339,17.5207,4.5508c4.5508,1.8203,12.1356,5.0818,22.7542,9.7843,10.6186,4.7025,22.6784,10.1635,36.1792,16.383,13.5008,6.2195,27.0775,12.7424,40.73,19.5686s25.8639,13.1216,36.6343,18.886c10.7703,5.7644,18.5826,10.6186,23.4368,14.5627,9.1017,6.6746,13.0457,14.3352,11.8322,22.9817-1.2136,8.6466-6.5229,16.1555-15.9279,22.5267-3.3373,2.1237-9.4051,5.8402-18.2034,11.1496-8.7983,5.3093-19.2652,11.5288-31.4008,18.6584-12.1356,7.1297-25.0296,14.3352-38.6822,21.6165-13.6525,7.2813-27.0775,14.1076-40.2749,20.4788-13.1974,6.3712-25.1055,11.453-35.7241,15.2453-10.6186,3.7924-18.9618,5.5369-25.0296,5.2335-7.2813-.3034-16.2313-2.2754-26.85-5.9161s-22.0716-8.2674-34.3589-13.8801c-12.2873-5.6127-24.4987-11.6046-36.6343-17.9758s-23.4368-12.3631-33.9038-17.9758c-10.4669-5.6127-19.0377-10.2394-25.7123-13.8801-17.2932-8.7983-30.1872-16.383-38.6822-22.7542s-12.8941-14.7144-13.1974-25.0296Z" fill="#eaeaea"/><path d="M130.9087,63.7118c2.4271,2.4271,2.2754,5.7644-.4551,10.0119-2.7305,4.2475-6.0678,8.8741-10.0119,13.8801-3.9441,5.0059-6.5229,9.936-7.7364,14.7902-1.2136,3.3373-.5309,7.2813,2.0479,11.8322,2.5788,4.5508,5.461,9.1017,8.6466,13.6525,3.1856,4.5508,5.7644,8.6466,7.7364,12.2873s1.8962,6.5229-.2275,8.6466c-3.0339,2.7305-7.8881,3.1856-14.5627,1.3653s-13.5767-5.0059-20.7063-9.5568c-7.1297-4.5508-13.1974-9.8602-18.2034-15.9279s-7.5089-11.9839-7.5089-17.7483,2.7305-11.6805,8.1915-17.7483c5.461-6.0678,11.9839-11.3771,19.5686-15.9279,7.5847-4.5508,14.5627-7.8123,20.9339-9.7843s10.4669-1.8962,12.2873.2275Z" fill="#fff"/><path d="M184.1536,187.4947c2.1237-3.3373,6.2953-5.2335,12.5148-5.6886s13.2733-.2275,21.1614.6826c7.8881.9102,15.7004,1.8962,23.4368,2.958s14.3352,1.5928,19.7962,1.5928c13.3491-.3034,25.0296-1.4411,35.0415-3.4131,10.0119-1.972,18.4309-3.1097,25.2572-3.4131,6.8263-.3034,12.0597,1.972,15.7004,6.8263,1.5169,2.1237,0,5.3093-4.5508,9.5568-4.5508,4.2475-10.922,8.5708-19.1135,12.9699-8.1915,4.3991-16.8381,8.1915-25.9398,11.3771s-17.5966,4.7784-25.4847,4.7784c-8.1915,0-17.1415-1.3653-26.85-4.0958s-18.886-6.2195-27.5326-10.4669-15.2453-8.4949-19.7962-12.7424c-4.5508-4.2475-5.7644-7.8881-3.6407-10.922Z" fill="#fff"/><path d="M378.9296,148.8125c-3.3373-2.1237-4.1716-5.0818-2.503-8.8741,1.6686-3.7924,4.3233-8.0398,7.964-12.7424s7.2055-9.3292,10.6945-13.8801c3.489-4.5508,5.6886-8.4949,6.5987-11.8322,1.2136-4.5508,1.0619-8.2674-.4551-11.1496s-2.6547-5.5369-3.4131-7.964.6826-5.0059,4.3233-7.7364c2.7305-1.8203,6.8263-2.0479,12.2873-.6826s10.9979,3.7924,16.6106,7.2813c5.6127,3.489,10.3152,7.5847,14.1076,12.2873,3.7924,4.7025,5.5369,9.1775,5.2335,13.425-.3034,4.5508-3.6407,9.5568-10.0119,15.0178s-13.8042,10.5428-22.2991,15.2453c-8.4949,4.7025-16.5347,8.2674-24.1195,10.6945-7.5847,2.4271-12.5907,2.7305-15.0178.9102Z" fill="#fff"/><path d="M12.1318,174.7523c.3034-11.2254,3.2614-19.3411,8.8741-24.347s12.2114-7.6606,19.7962-7.964c7.5847-.3034,14.5627,1.3653,20.9339,5.0059,2.4271,1.2136,7.6606,4.0958,15.7004,8.6466,8.0398,4.5508,17.6724,10.0877,28.8978,16.6106,11.2254,6.5229,23.1334,13.425,35.7241,20.7063,12.5907,7.2813,24.5745,14.3352,35.9516,21.1614,11.3771,6.8263,21.2373,12.7424,29.5805,17.7483,8.3432,5.0059,14.0318,8.4191,17.0657,10.2394,8.1915,5.7644,14.2593,13.5008,18.2034,23.2093s5.9161,18.3551,5.9161,25.9398c0,3.0339.0758,9.4051.2275,19.1135s.2275,21.2373.2275,34.5864v41.4127c0,14.2593-.0758,27.5326-.2275,39.8199s-.5309,22.0716-1.1377,29.3529c-.6068,12.439-4.3233,22.375-11.1496,29.808-6.8263,7.433-15.4729,11.9839-25.9398,13.6525-10.4669,1.6686-21.3131-.0758-32.5385-5.2335-4.8542-1.8203-12.5148-5.7644-22.9817-11.8322-10.4669-6.0678-22.1474-13.1216-35.0415-21.1614-12.8941-8.0398-25.5606-16.0038-37.9995-23.8919-12.439-7.8881-23.2851-14.9419-32.5385-21.1614-9.2534-6.2195-15.2453-10.3911-17.9758-12.5148-6.6746-5.7644-11.3771-13.7284-14.1076-23.8919s-4.2475-20.2512-4.5508-30.2631c0-3.6407-.0758-11.2254-.2275-22.7542-.1517-11.5288-.2275-24.9538-.2275-40.2749s-.0758-30.7182-.2275-46.191c-.1517-15.4729-.2275-29.2012-.2275-41.1851v-24.347Z" fill="#dfdfdf"/><path d="M286.0924,243.9251c3.3373-2.7305,9.4051-6.9021,18.2034-12.5148,8.7983-5.6127,19.0377-11.9839,30.7182-19.1135,11.6805-7.1297,23.9678-14.411,36.8618-21.844,12.8941-7.433,25.4089-14.411,37.5444-20.9339,12.1356-6.5229,22.8301-11.9839,32.0834-16.383,9.2534-4.3991,16.1555-7.0538,20.7063-7.964,13.0457-3.0339,22.2991-.4551,27.7601,7.7364s8.4949,18.3551,9.1017,30.4906c0,2.1237.0758,8.3432.2275,18.6584.1517,10.3152.2275,22.6784.2275,37.0894s.0758,29.0495.2275,43.9156c.1517,14.8661.1517,28.1394,0,39.8199-.1517,11.6805-.2275,19.4928-.2275,23.4368-.3034,10.922-2.4271,21.9199-6.3712,32.9936-3.9441,11.0737-9.1017,19.1894-15.4729,24.347-4.8542,4.2475-12.6665,9.8602-23.4368,16.8381s-23.2851,14.7144-37.5444,23.2093c-9.7085,5.7644-20.3271,12.3631-31.8559,19.7962-11.5288,7.433-23.2093,14.411-35.0415,20.9339-11.8322,6.5229-23.0576,11.3013-33.6762,14.3352-7.5847,2.1237-14.4868,1.8962-20.7063-.6826-6.2195-2.5788-11.5288-6.447-15.9279-11.6046s-7.8123-10.4669-10.2394-15.9279-3.6407-9.8602-3.6407-13.1974v-82.5978c0-12.8941.0758-25.333.2275-37.3169.1517-11.9839.2275-22.2233.2275-30.7182v-17.2932c0-8.7983,1.5928-17.1415,4.7784-25.0296,3.1856-7.8881,8.2674-14.7144,15.2453-20.4788Z" fill="#b8b8b8"/><path d="M317.9483,106.9448c0-11.5288-5.7644-21.4648-17.2932-29.808-11.5288-8.3432-25.4847-12.5148-41.8677-12.5148-16.0796,0-29.8839,4.1716-41.4127,12.5148-11.5288,8.3432-17.2932,18.2792-17.2932,29.808,0,11.8322,5.7644,21.844,17.2932,30.0356,11.5288,8.1915,25.333,12.2873,41.4127,12.2873,16.383,0,30.3389-4.0958,41.8677-12.2873,11.5288-8.1915,17.2932-18.2034,17.2932-30.0356Z" fill="#fe4e27"/><path d="M97.6876,219.3506c-3.9441-10.922-10.1635-19.3411-18.6584-25.2572-8.4949-5.9161-16.8381-7.3572-25.0296-4.3233-8.4949,2.7305-13.425,8.95-14.7902,18.6584-1.3653,9.7085-.0758,19.872,3.8682,30.4906,3.6407,10.6186,9.7085,18.9618,18.2034,25.0296,8.4949,6.0678,16.9898,7.7364,25.4847,5.0059,8.1915-3.0339,13.0457-9.4051,14.5627-19.1135,1.5169-9.7085.3034-19.872-3.6407-30.4906Z" fill="#2f2f2f"/><path d="M205.5425,407.3003c-4.5508-10.6186-11.3013-18.5068-20.2512-23.6644-8.95-5.1576-17.369-6.0678-25.2572-2.7305-8.1915,3.6407-12.7424,10.3911-13.6525,20.2512-.9102,9.8602.9102,20.0995,5.461,30.7182,4.5508,10.0119,11.453,18.0517,20.7063,24.1195s17.8241,7.2813,25.7123,3.6407c7.8881-3.3373,12.2114-10.3152,12.9699-20.9339.7585-10.6186-1.1377-21.0856-5.6886-31.4008Z" fill="#2f2f2f"/><path d="M419.4321,268.0446c-6.978-3.9441-10.7703-10.922-11.3771-20.9339-.6068-10.0119,1.972-20.0237,7.7364-30.0356,5.7644-10.3152,13.3491-17.5966,22.7542-21.844s17.5966-4.3991,24.5745-.4551c6.978,3.9441,10.922,10.922,11.8322,20.9339.9102,10.0119-1.5169,20.0237-7.2813,30.0356-5.7644,10.0119-13.5008,17.2174-23.2093,21.6165s-18.0517,4.6267-25.0296.6826Z" fill="#2f2f2f"/><path d="M364.3669,360.8817c-6.978-4.2475-10.922-11.6046-11.8322-22.0716-.9102-10.4669,1.6686-20.858,7.7364-31.1733s14.1076-17.5207,24.1195-21.6165c10.0119-4.0958,18.5068-4.0199,25.4847.2275,6.978,4.2475,10.8462,11.453,11.6046,21.6165.7585,10.1635-1.8962,20.4029-7.964,30.7182-5.7644,10.3152-13.5767,17.5966-23.4368,21.844-9.8602,4.2475-18.4309,4.3991-25.7123.4551Z" fill="#2f2f2f"/><path d="M309.7568,455.5392c-6.978-4.2475-10.7703-11.5288-11.3771-21.844s2.1237-20.4788,8.1915-30.4906c6.978-10.922,15.1695-17.9758,24.5745-21.1614,9.4051-3.1856,17.5966-2.6547,24.5745,1.5928,6.6746,4.2475,10.3152,11.3771,10.922,21.389s-2.1237,19.872-8.1915,29.5805c-6.0678,10.0119-13.9559,17.0657-23.6644,21.1614-9.7085,4.0958-18.0517,4.0199-25.0296-.2275Z" fill="#2f2f2f"/></svg>